<svg width="79" height="79" viewBox="0 0 79 79" fill="none" xmlns="http://www.w3.org/2000/svg">
<path d="M39.4994 0L46.7011 12.4737H32.2977L39.4994 0Z" fill="#D9D9D9"/>
<path d="M59.2505 5.29266L59.2505 19.696L46.7768 12.4943L59.2505 5.29266Z" fill="#D9D9D9"/>
<path d="M73.7067 19.7505L66.505 32.2242L59.3034 19.7505L73.7067 19.7505Z" fill="#D9D9D9"/>
<path d="M79 39.5004L66.5263 46.702V32.2987L79 39.5004Z" fill="#D9D9D9"/>
<path d="M73.7073 59.2505L59.304 59.2505L66.5057 46.7768L73.7073 59.2505Z" fill="#D9D9D9"/>
<path d="M59.2495 73.7067L46.7758 66.505L59.2495 59.3034L59.2495 73.7067Z" fill="#D9D9D9"/>
<path d="M39.5006 79L32.2989 66.5263H46.7023L39.5006 79Z" fill="#D9D9D9"/>
<path d="M19.7495 73.7073L19.7495 59.304L32.2232 66.5057L19.7495 73.7073Z" fill="#D9D9D9"/>
<path d="M5.29328 59.2495L12.495 46.7758L19.6966 59.2495L5.29328 59.2495Z" fill="#D9D9D9"/>
<path d="M0 39.4996L12.4737 32.298L12.4737 46.7013L0 39.4996Z" fill="#D9D9D9"/>
<path d="M5.29266 19.7495L19.696 19.7495L12.4943 32.2232L5.29266 19.7495Z" fill="#D9D9D9"/>
<path d="M19.7505 5.29328L32.2242 12.495L19.7505 19.6966L19.7505 5.29328Z" fill="#D9D9D9"/>
<circle cx="39.5" cy="39.5" r="28.5" fill="#FBFAF0"/>
</svg>
